<svg width="890.5000000000001" height="150.90732641603202" viewBox="0 0 350 59.31225631174756" class="looka-1j8o68f"><defs id="SvgjsDefs2598"></defs><g id="SvgjsG2599" featurekey="s6yzU4-0" transform="matrix(3.7952842712402344,0,0,3.7952842712402344,-0.4653206552627107,-19.31666425162158)" fill="#e8e3ed"><path d="M3.18 6.34 c-0.14 -0.34 0.04 -0.72 0.38 -0.86 s0.72 0.02 0.86 0.36 l2.06 5.06 l2.06 -5.06 c0.12 -0.34 0.52 -0.5 0.86 -0.36 c0.18 0.06 0.3 0.22 0.38 0.36 l2.06 5.06 l2.06 -5.06 c0.12 -0.34 0.52 -0.5 0.86 -0.36 c0.32 0.14 0.5 0.52 0.36 0.86 l-2.68 6.56 c-0.06 0.16 -0.18 0.32 -0.36 0.38 c-0.34 0.12 -0.72 -0.02 -0.88 -0.38 l-2.06 -5.04 l-2.06 5.04 c-0.06 0.16 -0.18 0.32 -0.34 0.38 c-0.34 0.12 -0.74 -0.02 -0.88 -0.38 l-2.68 -6.56 l0 0 z M16.9 5.84 c0.14 -0.34 0.54 -0.5 0.88 -0.36 c0.32 0.14 0.5 0.52 0.34 0.86 l-5.68 13.96 c-0.24 0.56 -1 0.54 -1.24 0 l-2.06 -5.06 l-2.06 5.06 c-0.22 0.56 -1 0.56 -1.22 -0.02 l-5.7 -13.94 c-0.12 -0.34 0.06 -0.72 0.38 -0.86 c0.34 -0.14 0.74 0.02 0.86 0.36 l5.08 12.46 l2.04 -5.02 c0.26 -0.58 1 -0.62 1.26 0 l2.06 5.02 l5.06 -12.46 l0 0 z M25.64 12.18 c-0.18 0 -0.44 0.02 -0.66 0 c-1.04 -0.06 -1.08 -1.32 0 -1.32 c0.62 0 1.36 0.1 1.36 -0.68 c0 -0.4 -0.32 -0.68 -0.7 -0.68 l-2.38 0 c-0.88 0 -0.88 -1.34 0 -1.34 l2.38 0 c1.22 0 2.02 1.02 2.02 2.04 c0 1.12 -0.92 1.98 -2.02 1.98 l0 0 z M26.880000000000003 19.14 c0.5 0.72 -0.58 1.5 -1.1 0.78 l-1.84 -2.66 l0 2.28 c0 0.88 -1.34 0.88 -1.34 0 l0 -4.36 c0 -0.72 0.84 -0.92 1.22 -0.42 l3.06 4.38 l0 0 z M21.26 19.54 c0 0.88 -1.34 0.88 -1.34 0 l0 -13.38 c0 -0.36 0.32 -0.66 0.68 -0.66 l5.26 0 c4.1 0 6.16 5.02 3.28 7.98 c-0.58 0.58 -1.3 1.02 -2.1 1.22 l3.1 4.44 c0.5 0.72 -0.6 1.5 -1.08 0.78 l-3.7 -5.3 c-0.4 -0.52 0 -1.1 0.5 -1.1 c2.94 0 4.38 -3.64 2.32 -5.72 c-0.6 -0.6 -1.42 -0.96 -2.32 -0.96 l-4.6 0 l0 12.7 l0 0 z M36.26 16.2 c-0.36 0 -0.66 -0.3 -0.66 -0.68 s0.3 -0.66 0.66 -0.66 l0.96 0 l-0.6 -1.48 c-0.12 -0.34 0.04 -0.74 0.36 -0.86 c0.36 -0.14 0.74 0.02 0.88 0.34 l0.98 2.4 c0.04 0.08 0.06 0.16 0.06 0.26 c0 0.38 -0.32 0.68 -0.7 0.68 l-1.94 0 l0 0 z M35.28 19.66 c-0.12 0.34 -0.5 0.5 -0.86 0.38 c-0.34 -0.16 -0.5 -0.54 -0.36 -0.88 l0.48 -1.22 c0.12 -0.24 0.38 -0.42 0.62 -0.42 l0 0 l4.14 0 c0.3 0 0.56 0.22 0.64 0.48 l0.48 1.16 c0.12 0.34 -0.02 0.72 -0.36 0.88 c-0.34 0.12 -0.74 -0.02 -0.88 -0.38 l-0.32 -0.78 l-3.24 0 l-0.34 0.78 l0 0 z M32.42 19.66 c-0.16 0.34 -0.54 0.5 -0.88 0.38 c-0.32 -0.16 -0.5 -0.54 -0.38 -0.88 l5.46 -13.64 c0.14 -0.36 0.54 -0.52 0.86 -0.38 c0.2 0.06 0.32 0.22 0.38 0.38 l5.44 13.64 c0.14 0.34 -0.02 0.72 -0.36 0.88 c-0.34 0.12 -0.74 -0.04 -0.88 -0.38 l-4.82 -12.14 l-4.82 12.14 l0 0 z M51.06 12.18 c-0.52 0 -1.42 0.14 -1.42 -0.66 c0 -0.82 0.9 -0.66 1.42 -0.66 c0.92 0 0.92 -1.34 0 -1.34 l-2.36 0 c-0.88 0 -0.88 -1.34 0 -1.34 l2.36 0 c2.68 0 2.68 4 0 4 l0 0 z M46.7 19.52 c0 0.88 -1.34 0.88 -1.34 0 l0 -13.32 c0 -0.4 0.3 -0.68 0.66 -0.68 l5.28 0 c6.06 0 6.04 9.34 0 9.34 l-1.92 0 l0 4.66 c0 0.88 -1.36 0.88 -1.36 0 l0 -5.34 c0 -0.36 0.32 -0.66 0.68 -0.66 l2.6 0 c4.3 0 4.3 -6.68 0 -6.68 l-4.6 0 l0 12.68 l0 0 z M63.800000000000004 12.18 c-0.52 0 -1.42 0.14 -1.42 -0.66 c0 -0.82 0.9 -0.66 1.42 -0.66 c0.92 0 0.92 -1.34 0 -1.34 l-2.36 0 c-0.88 0 -0.88 -1.34 0 -1.34 l2.36 0 c2.68 0 2.68 4 0 4 l0 0 z M59.440000000000005 19.52 c0 0.88 -1.34 0.88 -1.34 0 l0 -13.32 c0 -0.4 0.3 -0.68 0.66 -0.68 l5.28 0 c6.06 0 6.04 9.34 0 9.34 l-1.92 0 l0 4.66 c0 0.88 -1.36 0.88 -1.36 0 l0 -5.34 c0 -0.36 0.32 -0.66 0.68 -0.66 l2.6 0 c4.3 0 4.3 -6.68 0 -6.68 l-4.6 0 l0 12.68 l0 0 z M78.42000000000002 8.18 c0.38 0 0.68 0.28 0.68 0.66 c0 0.36 -0.3 0.66 -0.68 0.66 l-3.58 0 l0 1.34 l2.34 0 c0.38 0 0.68 0.3 0.68 0.68 c0 0.36 -0.3 0.66 -0.68 0.66 l-3 0 c-0.38 0 -0.68 -0.3 -0.68 -0.66 l0 -2.68 c0 -0.38 0.3 -0.66 0.68 -0.66 l4.24 0 l0 0 z M77.18 13.52 c0.38 0 0.68 0.3 0.68 0.66 c0 0.38 -0.3 0.68 -0.68 0.68 l-2.34 0 l0 1.32 l3.58 0 c0.38 0 0.68 0.3 0.68 0.68 c0 0.36 -0.3 0.66 -0.68 0.66 l-4.24 0 c-0.38 0 -0.68 -0.3 -0.68 -0.66 l0 -2.68 c0 -0.36 0.3 -0.66 0.68 -0.66 l3 0 l0 0 z M78.42000000000002 18.86 c0.38 0 0.68 0.3 0.68 0.68 c0 0.36 -0.3 0.66 -0.68 0.66 l-6.92 0 c-0.36 0 -0.66 -0.3 -0.66 -0.66 l0 -13.38 c0 -0.36 0.3 -0.66 0.66 -0.66 l6.92 0 c0.38 0 0.68 0.3 0.68 0.66 c0 0.38 -0.3 0.68 -0.68 0.68 l-6.24 0 l0 12.02 l6.24 0 l0 0 z M87.5 12.18 c-0.18 0 -0.44 0.02 -0.66 0 c-1.04 -0.06 -1.08 -1.32 0 -1.32 c0.62 0 1.36 0.1 1.36 -0.68 c0 -0.4 -0.32 -0.68 -0.7 -0.68 l-2.38 0 c-0.88 0 -0.88 -1.34 0 -1.34 l2.38 0 c1.22 0 2.02 1.02 2.02 2.04 c0 1.12 -0.92 1.98 -2.02 1.98 l0 0 z M88.74000000000001 19.14 c0.5 0.72 -0.58 1.5 -1.1 0.78 l-1.84 -2.66 l0 2.28 c0 0.88 -1.34 0.88 -1.34 0 l0 -4.36 c0 -0.72 0.84 -0.92 1.22 -0.42 l3.06 4.38 l0 0 z M83.12 19.54 c0 0.88 -1.34 0.88 -1.34 0 l0 -13.38 c0 -0.36 0.32 -0.66 0.68 -0.66 l5.26 0 c4.1 0 6.16 5.02 3.28 7.98 c-0.58 0.58 -1.3 1.02 -2.1 1.22 l3.1 4.44 c0.5 0.72 -0.6 1.5 -1.08 0.78 l-3.7 -5.3 c-0.4 -0.52 0 -1.1 0.5 -1.1 c2.94 0 4.38 -3.64 2.32 -5.72 c-0.6 -0.6 -1.42 -0.96 -2.32 -0.96 l-4.6 0 l0 12.7 l0 0 z"></path></g></svg>